<?xml version="1.0" encoding="utf-8" ?>	<!-- Generator: Assembly 2.4 - http://assemblyapp.co -->	<svg version="1.1" xmlns="http://www.w3.org/2000/svg" xmlns:xlink="http://www.w3.org/1999/xlink" width="4096.00" height="4096.00" viewBox="0 0 4096.0 4096.0">		<g id="document" transform="scale(13.653333333333334 13.653333333333334) translate(150.0 150.0)">			<path d="M141.866,-10.5263 C141.866,-57.3145 103.937,-95.2438 57.1485,-95.2438 C10.3603,-95.2438 -27.569,-57.3145 -27.569,-10.5263 C-27.569,36.2619 10.3603,74.1912 57.1485,74.1912 C103.937,74.1912 141.866,36.2619 141.866,-10.5263 Z " fill="#dd7455" fill-opacity="1.00" />			<path d="M46.7909,-5.38798 C31.6073,-5.38798 17.4032,0.979368 7.60725,10.7753 C-0.964177,-21.0615 -30.3519,-44.8166 -64.8826,-44.8166 C-106.27,-44.8166 -139.821,-11.2655 -139.821,30.1222 C-139.821,71.51 -106.27,104.816 -64.8826,104.816 L46.7909,104.816 C77.4032,104.816 102.138,80.0814 102.138,49.4692 C102.138,18.8569 77.4032,-5.38798 46.7909,-5.38798 Z " fill="#ffffff" fill-opacity="1.00" />		</g>	</svg>